Coordinates
version=1
nRows=7
nColumns=42
inDegrees=yes

Units are S.I. units (second, meters, Newtons, ...)
If the header above contains a line with 'inDegrees', this indicates whether rotational values are in degrees (yes) or radians (no).

endheader
time	pelvis_tilt	pelvis_list	pelvis_rotation	pelvis_tx	pelvis_ty	pelvis_tz	hip_flexion_r	hip_adduction_r	hip_rotation_r	knee_angle_r	knee_adduction_r	knee_angle_r_beta	ankle_angle_r	subtalar_angle_r	mtp_angle_r	hip_flexion_l	hip_adduction_l	hip_rotation_l	knee_angle_l	knee_adduction_l	knee_angle_l_beta	ankle_angle_l	subtalar_angle_l	mtp_angle_l	lumbar_extension	lumbar_bending	lumbar_rotation	arm_flex_r	arm_add_r	arm_rot_r	elbow_flex_r	pro_sup_r	wrist_flex_r	wrist_dev_r	arm_flex_l	arm_add_l	arm_rot_l	elbow_flex_l	pro_sup_l	wrist_flex_l	wrist_dev_l
      2.83000000	      2.05771580	      6.67297494	      5.66865794	      0.07207848	      0.99343407	      0.30957343	     17.39545055	     -8.37352726	    -36.86645548	     20.78868189	     -8.40902271	      0.36283095	      5.24705691	     29.30713232	     -7.50769624	     -8.66270672	      3.72337954	     -4.92249957	     29.18359602	     -1.70920387	      0.50934984	      2.91641175	     10.79115916	     -7.50769624	    -22.60518508	     -6.83163816	     -8.89946561	     -7.83238217	    -12.11811045	     21.74332705	     39.16401047	     90.00000001	      0.00000000	      0.00000000	     16.14849855	    -21.38492187	     13.53329142	     48.90237703	     90.00000001	      0.00000000	      0.00000000
      2.84000000	      2.00268111	      6.83912154	      5.64954158	      0.07875112	      0.99464709	      0.31113590	     16.87828280	     -8.42466508	    -37.24059585	     20.52676516	     -8.40859815	      0.35825964	      5.44752766	     30.10769482	     -7.50730659	     -7.63951518	      3.44536302	     -3.41531523	     31.53249766	     -0.58608255	      0.55034591	      1.46948069	      7.76299420	     -7.50730659	    -22.63664072	     -7.06996446	     -8.76540880	     -7.20493782	    -12.19918097	     21.94632186	     39.28653948	     90.00000001	      0.00000000	      0.00000000	     15.65656834	    -21.38936993	     13.40325445	     48.75666437	     90.00000001	      0.00000000	      0.00000000
      2.85000000	      2.15231116	      6.91721243	      5.64268052	      0.08557693	      0.99597888	      0.31257464	     16.02798661	     -8.39127289	    -37.45024481	     20.20662613	     -8.17544217	      0.35267216	      5.91206957	     30.45210198	     -7.50720740	     -6.63931836	      3.01474890	     -2.95585555	     34.05918532	      0.02623304	      0.59444492	      0.18424638	      6.82923650	     -7.50720740	    -22.86237787	     -7.17019326	     -8.59148247	     -6.61437467	    -12.32528033	     21.93299686	     39.55674694	     90.00000001	      0.00000000	      0.00000000	     15.15840641	    -21.41927660	     13.35444596	     48.69227078	     90.00000001	      0.00000000	      0.00000000
      2.86000000	      2.21801614	      6.92205905	      5.60197310	      0.09217212	      0.99698472	      0.31410360	     15.33728140	     -8.25161255	    -37.60896219	     19.89357449	     -8.00229190	      0.34720837	      6.24992241	     30.87024995	     -7.50710771	     -5.43524885	      2.49693092	     -2.37909765	     36.66534798	      0.77217432	      0.63993104	     -0.85303016	      5.56912915	     -7.50710771	    -22.97868174	     -7.22490820	     -8.35796726	     -5.97450515	    -12.49548045	     22.01467046	     39.83095962	     90.00000001	      0.00000000	      0.00000000	     14.61430047	    -21.42819429	     13.16047448	     48.63472683	     90.00000001	      0.00000000	      0.00000000
      2.87000000	      2.17588264	      6.90358675	      5.48298661	      0.09856692	      0.99771082	      0.31581848	     14.87719107	     -8.02049972	    -37.72291602	     19.63724942	     -8.01783960	      0.34273466	      6.44245763	     31.21737263	     -7.50687964	     -4.07625052	      1.93580082	     -1.48829564	     39.20157567	      1.85077302	      0.68419657	     -1.73022630	      3.65821349	     -7.50687964	    -22.97254215	     -7.31544470	     -8.02779672	     -5.28081637	    -12.69862261	     22.29471213	     40.04455484	     90.00000001	      0.00000000	      0.00000000	     14.03472649	    -21.37783492	     12.70106313	     48.59471812	     90.00000001	      0.00000000	      0.00000000
      2.88000000	      2.32595218	      6.97125300	      5.41432704	      0.10499843	      0.99868188	      0.31715309	     14.09402789	     -7.99072847	    -37.80649366	     19.38110453	     -7.75194878	      0.33826409	      6.86952238	     31.44042793	     -7.50675181	     -2.88595835	      1.55272090	     -1.01870139	     41.56931593	      2.44188925	      0.72552143	     -2.48305268	      2.59870087	     -7.50675181	    -23.18876245	     -7.42357717	     -7.75590054	     -4.58328288	    -12.91322230	     22.36141767	     40.32574184	     90.00000001	      0.00000000	      0.00000000	     13.49744231	    -21.38047464	     12.40511316	     48.56899660	     90.00000001	      0.00000000	      0.00000000
      2.89000000	      2.36395419	      6.91281836	      5.28327756	      0.11127443	      0.99926884	      0.31870468	     13.55145824	     -7.73360228	    -37.87822121	     19.14234712	     -7.71797032	      0.33409698	      7.16439590	     31.78814133	     -7.50660718	     -1.49915829	      0.97744040	     -0.46586367	     43.89886619	      3.24952904	      0.76617975	     -2.98853646	      1.21686717	     -7.50660718	    -23.24666597	     -7.46349970	     -7.38806574	     -3.83710742	    -13.16746135	     22.57071800	     40.57169552	     90.00000001	      0.00000000	      0.00000000	     12.87501768	    -21.30040401	     11.91211236	     48.57306016	     90.00000001	      0.00000000	      0.00000000
